<svg width="24" height="24" viewBox="0 0 24 24" fill="none" xmlns="http://www.w3.org/2000/svg">
<path d="M12 20.3234C11.7667 20.3234 11.5292 20.2818 11.2875 20.1984C11.0458 20.1151 10.8333 19.9818 10.65 19.7984L8.925 18.2234C7.15833 16.6068 5.5625 15.0026 4.1375 13.4109C2.7125 11.8193 2 10.0651 2 8.14844C2 6.58177 2.525 5.27344 3.575 4.22344C4.625 3.17344 5.93333 2.64844 7.5 2.64844C8.38333 2.64844 9.21667 2.83594 10 3.21094C10.7833 3.58594 11.45 4.09844 12 4.74844C12.55 4.09844 13.2167 3.58594 14 3.21094C14.7833 2.83594 15.6167 2.64844 16.5 2.64844C18.0667 2.64844 19.375 3.17344 20.425 4.22344C21.475 5.27344 22 6.58177 22 8.14844C22 10.0651 21.2917 11.8234 19.875 13.4234C18.4583 15.0234 16.85 16.6318 15.05 18.2484L13.35 19.7984C13.1667 19.9818 12.9542 20.1151 12.7125 20.1984C12.4708 20.2818 12.2333 20.3234 12 20.3234Z" fill="#ff0000"/>
</svg>
