<svg width="24" height="24" viewBox="0 0 24 24" fill="none" xmlns="http://www.w3.org/2000/svg">
<path d="M8.42353 0.427845L11.4416 1.30053C11.7806 1.39857 12.1404 1.39931 12.4798 1.30269L15.6112 0.411303C16.4564 0.170715 17.3556 0.546915 17.7776 1.31768L19.4127 4.30383C19.5809 4.61093 19.8314 4.86505 20.136 5.03762L22.6787 6.47792C23.4497 6.91468 23.8117 7.8301 23.548 8.6761L22.6688 11.4954C22.5556 11.8584 22.555 12.2472 22.6671 12.6106L23.56 15.5054C23.8177 16.3409 23.4661 17.244 22.7113 17.6852L19.817 19.3772C19.5138 19.5544 19.2663 19.8129 19.1023 20.1235L17.7545 22.6768C17.3456 23.4515 16.4564 23.8417 15.6095 23.6181L12.4446 22.7828C12.1273 22.699 11.7937 22.6997 11.4767 22.7846L8.43415 23.6004C7.5676 23.8328 6.6575 23.4213 6.25958 22.6172L4.91893 19.908C4.74213 19.5508 4.45647 19.2588 4.10311 19.0743L1.34775 17.6356C0.561474 17.225 0.168507 16.3213 0.404481 15.4662L1.21086 12.5444C1.29971 12.2224 1.3013 11.8826 1.21547 11.5599L0.376636 8.40538C0.155154 7.57248 0.52762 6.69555 1.2808 6.27662L4.15375 4.67867C4.47542 4.49975 4.73758 4.23045 4.90779 3.90409L6.23165 1.36568C6.64597 0.571256 7.56282 0.178965 8.42353 0.427845Z" fill="#E6533C"/>
<path d="M12.25 7V17" stroke="#EFEDE8" stroke-width="1.5" stroke-linecap="round" stroke-linejoin="round"/>
<path d="M7 12H17" stroke="#EFEDE8" stroke-width="1.5" stroke-linecap="round" stroke-linejoin="round"/>
</svg>
