<svg width="16" height="20" viewBox="0 0 16 20" fill="none" xmlns="http://www.w3.org/2000/svg">
<path d="M6.33352 5.70833L3.20852 8.83333C2.87518 9.16667 2.47935 9.32639 2.02102 9.3125C1.56268 9.29861 1.16685 9.125 0.833516 8.79167C0.52796 8.45833 0.368238 8.06944 0.354349 7.625C0.34046 7.18056 0.500183 6.79167 0.833516 6.45833L6.83352 0.458333C7.00018 0.291667 7.18074 0.173611 7.37518 0.104167C7.56963 0.0347222 7.77796 0 8.00018 0C8.22241 0 8.43074 0.0347222 8.62518 0.104167C8.81963 0.173611 9.00018 0.291667 9.16685 0.458333L15.1668 6.45833C15.5002 6.79167 15.6599 7.18056 15.646 7.625C15.6321 8.06944 15.4724 8.45833 15.1668 8.79167C14.8335 9.125 14.4377 9.29861 13.9793 9.3125C13.521 9.32639 13.1252 9.16667 12.7918 8.83333L9.66685 5.70833V17.625C9.66685 18.0972 9.50713 18.4931 9.18768 18.8125C8.86824 19.1319 8.47241 19.2917 8.00018 19.2917C7.52796 19.2917 7.13213 19.1319 6.81268 18.8125C6.49324 18.4931 6.33352 18.0972 6.33352 17.625V5.70833Z" fill="#682EFF"/>
</svg>
