<svg width="25" height="24" viewBox="0 0 25 24" fill="none" xmlns="http://www.w3.org/2000/svg">
<path d="M3.75004 0C3.41851 0 3.10056 0.148739 2.86613 0.413496C2.6317 0.678253 2.5 1.03734 2.5 1.41176C2.5 1.78619 2.6317 2.14528 2.86613 2.41003C3.10056 2.67479 3.41851 2.82353 3.75004 2.82353H5.27509L5.65636 4.54871C5.66014 4.56857 5.66431 4.58834 5.66886 4.608L7.36641 12.2739L6.25013 13.5332C4.67507 15.312 5.79011 18.3529 8.01768 18.3529H18.7505C19.0821 18.3529 19.4 18.2042 19.6345 17.9394C19.8689 17.6747 20.0006 17.3156 20.0006 16.9412C20.0006 16.5668 19.8689 16.2077 19.6345 15.9429C19.4 15.6782 19.0821 15.5294 18.7505 15.5294H8.01768L9.26773 14.1176H17.5005C17.7326 14.1175 17.9601 14.0444 18.1574 13.9065C18.3548 13.7686 18.5143 13.5714 18.618 13.3369L22.3682 4.86635C22.4634 4.65117 22.5083 4.41208 22.4987 4.17177C22.4892 3.93146 22.4254 3.69791 22.3134 3.49326C22.2015 3.28862 22.0451 3.11967 21.8591 3.00246C21.6731 2.88525 21.4636 2.82366 21.2506 2.82353H7.85018L7.46267 1.06871C7.39495 0.763417 7.23885 0.492436 7.01916 0.298808C6.79947 0.10518 6.5288 8.27355e-06 6.25013 0H3.75004ZM20.0006 21.8824C20.0006 22.444 19.803 22.9826 19.4514 23.3798C19.0997 23.7769 18.6228 24 18.1255 24C17.6282 24 17.1513 23.7769 16.7997 23.3798C16.448 22.9826 16.2505 22.444 16.2505 21.8824C16.2505 21.3207 16.448 20.7821 16.7997 20.385C17.1513 19.9878 17.6282 19.7647 18.1255 19.7647C18.6228 19.7647 19.0997 19.9878 19.4514 20.385C19.803 20.7821 20.0006 21.3207 20.0006 21.8824ZM8.12519 24C8.62249 24 9.09941 23.7769 9.45106 23.3798C9.8027 22.9826 10.0003 22.444 10.0003 21.8824C10.0003 21.3207 9.8027 20.7821 9.45106 20.385C9.09941 19.9878 8.62249 19.7647 8.12519 19.7647C7.62789 19.7647 7.15096 19.9878 6.79932 20.385C6.44768 20.7821 6.25013 21.3207 6.25013 21.8824C6.25013 22.444 6.44768 22.9826 6.79932 23.3798C7.15096 23.7769 7.62789 24 8.12519 24Z" fill="#04121B" fill-opacity="0.64"/>
</svg>
