<svg width="24" height="21" viewBox="0 0 24 21" fill="none" xmlns="http://www.w3.org/2000/svg">
<path d="M11.1884 19.1921L11.1723 19.1761L11.1555 19.1607L9.21572 17.3896C9.21569 17.3896 9.21565 17.3896 9.21562 17.3895C7.24976 15.5906 5.47824 13.8094 3.89972 12.0463C2.44052 10.4164 1.75 8.67431 1.75 6.79297C1.75 5.27946 2.24644 4.06699 3.22898 3.08445C4.21152 2.10191 5.42399 1.60547 6.9375 1.60547C7.78445 1.60547 8.57412 1.78404 9.3182 2.14025C10.0747 2.50241 10.7109 2.99265 11.2366 3.61391L12 4.51609L12.7634 3.61391C13.2891 2.99265 13.9253 2.50241 14.6818 2.14025C15.4259 1.78404 16.2156 1.60547 17.0625 1.60547C18.576 1.60547 19.7885 2.10191 20.771 3.08445C21.7536 4.06699 22.25 5.27946 22.25 6.79297C22.25 8.67639 21.5625 10.4247 20.1107 12.0644C18.5452 13.8325 16.7633 15.6149 14.763 17.4115L14.763 17.4115L14.7575 17.4165L12.845 19.1603L12.828 19.1758L12.8116 19.1921C12.7111 19.2926 12.6019 19.3603 12.4756 19.4038C12.2986 19.4649 12.1415 19.4898 12 19.4898C11.8585 19.4898 11.7014 19.4649 11.5244 19.4038C11.3981 19.3603 11.2889 19.2926 11.1884 19.1921Z" stroke="#04121B" stroke-opacity="0.48" stroke-width="2"/>
</svg>
