<svg width="24" height="21" viewBox="0 0 24 21" fill="none" xmlns="http://www.w3.org/2000/svg">
<path d="M12 20.4898C11.7375 20.4898 11.4703 20.443 11.1984 20.3492C10.9266 20.2555 10.6875 20.1055 10.4812 19.8992L8.54062 18.1273C6.55312 16.3086 4.75781 14.5039 3.15469 12.7133C1.55156 10.9227 0.75 8.94922 0.75 6.79297C0.75 5.03047 1.34062 3.55859 2.52187 2.37734C3.70312 1.19609 5.175 0.605469 6.9375 0.605469C7.93125 0.605469 8.86875 0.816406 9.75 1.23828C10.6312 1.66016 11.3812 2.23672 12 2.96797C12.6187 2.23672 13.3687 1.66016 14.25 1.23828C15.1312 0.816406 16.0687 0.605469 17.0625 0.605469C18.825 0.605469 20.2969 1.19609 21.4781 2.37734C22.6594 3.55859 23.25 5.03047 23.25 6.79297C23.25 8.94922 22.4531 10.9273 20.8594 12.7273C19.2656 14.5273 17.4562 16.3367 15.4312 18.1555L13.5187 19.8992C13.3125 20.1055 13.0734 20.2555 12.8016 20.3492C12.5297 20.443 12.2625 20.4898 12 20.4898Z" fill="#04121B" fill-opacity="0.48"/>
</svg>
