<svg width="18" height="15" viewBox="0 0 18 15" fill="none" xmlns="http://www.w3.org/2000/svg">
<path d="M8.99996 14.9362C8.80551 14.9362 8.6076 14.9015 8.40621 14.832C8.20482 14.7626 8.02774 14.6515 7.87496 14.4987L6.43746 13.1862C4.96524 11.839 3.63538 10.5022 2.44788 9.17578C1.26038 7.84939 0.666626 6.38759 0.666626 4.79037C0.666626 3.48481 1.10413 2.39453 1.97913 1.51953C2.85413 0.644531 3.9444 0.207031 5.24996 0.207031C5.98607 0.207031 6.68051 0.363281 7.33329 0.675781C7.98607 0.988281 8.54163 1.41536 8.99996 1.95703C9.45829 1.41536 10.0138 0.988281 10.6666 0.675781C11.3194 0.363281 12.0138 0.207031 12.75 0.207031C14.0555 0.207031 15.1458 0.644531 16.0208 1.51953C16.8958 2.39453 17.3333 3.48481 17.3333 4.79037C17.3333 6.38759 16.743 7.85287 15.5625 9.1862C14.3819 10.5195 13.0416 11.8598 11.5416 13.207L10.125 14.4987C9.97218 14.6515 9.7951 14.7626 9.59371 14.832C9.39232 14.9015 9.1944 14.9362 8.99996 14.9362Z" fill="#682EFF"/>
</svg>
