<svg width="25" height="24" viewBox="0 0 25 24" fill="none" xmlns="http://www.w3.org/2000/svg">
<path d="M12.5 22C12.22 22 11.935 21.9529 11.645 21.8586C11.355 21.7643 11.1 21.6134 10.88 21.4059L8.81 19.6238C6.69 17.7944 4.775 15.9793 3.065 14.1782C1.355 12.3772 0.5 10.3923 0.5 8.22348C0.5 6.45073 1.13 4.9703 2.39 3.78218C3.65 2.59406 5.22 2 7.1 2C8.16 2 9.16 2.21216 10.1 2.63649C11.04 3.06082 11.84 3.64074 12.5 4.37624C13.16 3.64074 13.96 3.06082 14.9 2.63649C15.84 2.21216 16.84 2 17.9 2C19.78 2 21.35 2.59406 22.61 3.78218C23.87 4.9703 24.5 6.45073 24.5 8.22348C24.5 10.3923 23.65 12.3819 21.95 14.1924C20.25 16.0028 18.32 17.8227 16.16 19.6521L14.12 21.4059C13.9 21.6134 13.645 21.7643 13.355 21.8586C13.065 21.9529 12.78 22 12.5 22Z" fill="#04121B" fill-opacity="0.64"/>
</svg>
