<svg width="20" height="19" viewBox="0 0 20 19" fill="none" xmlns="http://www.w3.org/2000/svg">
<path d="M10 18.3234C9.76667 18.3234 9.52917 18.2818 9.2875 18.1984C9.04583 18.1151 8.83333 17.9818 8.65 17.7984L6.925 16.2234C5.15833 14.6068 3.5625 13.0026 2.1375 11.4109C0.7125 9.81927 0 8.0651 0 6.14844C0 4.58177 0.525 3.27344 1.575 2.22344C2.625 1.17344 3.93333 0.648438 5.5 0.648438C6.38333 0.648438 7.21667 0.835938 8 1.21094C8.78333 1.58594 9.45 2.09844 10 2.74844C10.55 2.09844 11.2167 1.58594 12 1.21094C12.7833 0.835938 13.6167 0.648438 14.5 0.648438C16.0667 0.648438 17.375 1.17344 18.425 2.22344C19.475 3.27344 20 4.58177 20 6.14844C20 8.0651 19.2917 9.82344 17.875 11.4234C16.4583 13.0234 14.85 14.6318 13.05 16.2484L11.35 17.7984C11.1667 17.9818 10.9542 18.1151 10.7125 18.1984C10.4708 18.2818 10.2333 18.3234 10 18.3234Z" fill="black"/>
</svg>
