<svg width="20" height="20" viewBox="0 0 20 20" fill="none" xmlns="http://www.w3.org/2000/svg">
<path d="M12.9938 2.52266C12.2336 1.70195 11.1719 1.25 10 1.25C8.82191 1.25 7.75668 1.69922 7.00004 2.51484C6.23519 3.33945 5.86254 4.46016 5.95004 5.67031C6.12348 8.05781 7.94027 10 10 10C12.0598 10 13.8735 8.0582 14.0496 5.67109C14.1383 4.47187 13.7633 3.35352 12.9938 2.52266Z" fill="black"/>
<path d="M16.8752 18.75H3.12522C2.94525 18.7523 2.76702 18.7145 2.60349 18.6393C2.43997 18.5641 2.29526 18.4534 2.17991 18.3152C1.926 18.0117 1.82366 17.5973 1.89944 17.1781C2.22913 15.3492 3.25804 13.8129 4.87522 12.7344C6.31194 11.777 8.13186 11.25 10.0002 11.25C11.8686 11.25 13.6885 11.7773 15.1252 12.7344C16.7424 13.8125 17.7713 15.3488 18.101 17.1777C18.1768 17.5969 18.0744 18.0113 17.8205 18.3148C17.7052 18.4531 17.5605 18.5639 17.397 18.6391C17.2335 18.7144 17.0552 18.7523 16.8752 18.75Z" fill="black"/>
</svg>
