<svg width="120" height="120" viewBox="0 0 120 120" fill="none" xmlns="http://www.w3.org/2000/svg">
<g clip-path="url(#clip0_867_3380)">
<rect width="120" height="120" rx="60" fill="#F4F5F6"/>
<path d="M43.6662 80.8182H45.2074V87.5149C45.2074 88.2275 45.04 88.8589 44.7053 89.4091C44.3705 89.956 43.8999 90.3868 43.2933 90.7017C42.6868 91.0133 41.9759 91.169 41.1605 91.169C40.3485 91.169 39.6392 91.0133 39.0327 90.7017C38.4261 90.3868 37.9555 89.956 37.6207 89.4091C37.286 88.8589 37.1186 88.2275 37.1186 87.5149V80.8182H38.6548V87.3906C38.6548 87.8513 38.7559 88.2607 38.9581 88.6186C39.1636 88.9766 39.4536 89.2583 39.8281 89.4638C40.2027 89.666 40.6468 89.767 41.1605 89.767C41.6776 89.767 42.1233 89.666 42.4979 89.4638C42.8757 89.2583 43.1641 88.9766 43.3629 88.6186C43.5651 88.2607 43.6662 87.8513 43.6662 87.3906V80.8182ZM47.3216 93.8636V83.3636H48.7733V84.6016H48.8975C48.9837 84.4425 49.108 84.2585 49.2704 84.0497C49.4328 83.8409 49.6582 83.6586 49.9466 83.5028C50.2349 83.3438 50.6161 83.2642 51.09 83.2642C51.7065 83.2642 52.2567 83.42 52.7406 83.7315C53.2245 84.0431 53.604 84.4922 53.8791 85.0788C54.1575 85.6655 54.2967 86.3714 54.2967 87.1967C54.2967 88.022 54.1592 88.7296 53.8841 89.3196C53.609 89.9062 53.2311 90.3587 52.7505 90.6768C52.2699 90.9917 51.7214 91.1491 51.1049 91.1491C50.6409 91.1491 50.2614 91.0713 49.9664 90.9155C49.6748 90.7597 49.4461 90.5774 49.2804 90.3686C49.1146 90.1598 48.987 89.9742 48.8975 89.8118H48.8081V93.8636H47.3216ZM48.7782 87.1818C48.7782 87.7187 48.8561 88.1894 49.0119 88.5938C49.1677 88.9981 49.3931 89.3146 49.688 89.5433C49.983 89.7687 50.3443 89.8814 50.7718 89.8814C51.216 89.8814 51.5872 89.7637 51.8855 89.5284C52.1838 89.2898 52.4092 88.9666 52.5616 88.5589C52.7174 88.1513 52.7953 87.6922 52.7953 87.1818C52.7953 86.678 52.719 86.2256 52.5666 85.8246C52.4174 85.4235 52.1921 85.107 51.8904 84.875C51.5922 84.643 51.2193 84.527 50.7718 84.527C50.341 84.527 49.9764 84.638 49.6781 84.8601C49.3831 85.0821 49.1594 85.392 49.0069 85.7898C48.8545 86.1875 48.7782 86.6515 48.7782 87.1818ZM57.4487 80.8182V91H55.9622V80.8182H57.4487ZM62.6651 91.1541C61.9492 91.1541 61.3245 90.9901 60.7908 90.6619C60.2572 90.3338 59.8429 89.8748 59.5479 89.2848C59.253 88.6948 59.1055 88.0054 59.1055 87.2166C59.1055 86.4245 59.253 85.7318 59.5479 85.1385C59.8429 84.5452 60.2572 84.0845 60.7908 83.7564C61.3245 83.4283 61.9492 83.2642 62.6651 83.2642C63.381 83.2642 64.0058 83.4283 64.5394 83.7564C65.073 84.0845 65.4873 84.5452 65.7823 85.1385C66.0773 85.7318 66.2248 86.4245 66.2248 87.2166C66.2248 88.0054 66.0773 88.6948 65.7823 89.2848C65.4873 89.8748 65.073 90.3338 64.5394 90.6619C64.0058 90.9901 63.381 91.1541 62.6651 91.1541ZM62.6701 89.9062C63.1341 89.9062 63.5186 89.7836 63.8235 89.5384C64.1284 89.2931 64.3538 88.9666 64.4996 88.5589C64.6488 88.1513 64.7234 87.7022 64.7234 87.2116C64.7234 86.7244 64.6488 86.277 64.4996 85.8693C64.3538 85.4583 64.1284 85.1286 63.8235 84.88C63.5186 84.6314 63.1341 84.5071 62.6701 84.5071C62.2028 84.5071 61.815 84.6314 61.5067 84.88C61.2018 85.1286 60.9748 85.4583 60.8256 85.8693C60.6798 86.277 60.6069 86.7244 60.6069 87.2116C60.6069 87.7022 60.6798 88.1513 60.8256 88.5589C60.9748 88.9666 61.2018 89.2931 61.5067 89.5384C61.815 89.7836 62.2028 89.9062 62.6701 89.9062ZM70.1064 91.169C69.6225 91.169 69.185 91.0795 68.7939 90.9006C68.4028 90.7183 68.0929 90.4548 67.8642 90.1101C67.6388 89.7654 67.5261 89.3428 67.5261 88.8423C67.5261 88.4115 67.609 88.0568 67.7747 87.7784C67.9404 87.5 68.1641 87.2796 68.4458 87.1172C68.7276 86.9548 69.0424 86.8321 69.3904 86.7493C69.7385 86.6664 70.0931 86.6035 70.4544 86.5604C70.9118 86.5073 71.283 86.4643 71.568 86.4311C71.853 86.3946 72.0602 86.3366 72.1895 86.2571C72.3187 86.1776 72.3833 86.0483 72.3833 85.8693V85.8345C72.3833 85.4003 72.2607 85.0639 72.0154 84.8253C71.7735 84.5866 71.4122 84.4673 70.9316 84.4673C70.4312 84.4673 70.0368 84.5784 69.7484 84.8004C69.4634 85.0192 69.2662 85.2628 69.1568 85.5312L67.7598 85.2131C67.9255 84.7491 68.1674 84.3745 68.4856 84.0895C68.8071 83.8011 69.1767 83.5923 69.5943 83.4631C70.0119 83.3305 70.4511 83.2642 70.9118 83.2642C71.2167 83.2642 71.5398 83.3007 71.8812 83.3736C72.2259 83.4432 72.5474 83.5724 72.8457 83.7614C73.1473 83.9503 73.3942 84.2204 73.5865 84.5717C73.7787 84.9197 73.8748 85.3722 73.8748 85.929V91H72.4231V89.956H72.3635C72.2673 90.1482 72.1232 90.3371 71.9309 90.5227C71.7387 90.7083 71.4918 90.8625 71.1902 90.9851C70.8886 91.1077 70.5273 91.169 70.1064 91.169ZM70.4295 89.9759C70.8405 89.9759 71.1918 89.8946 71.4835 89.7322C71.7785 89.5698 72.0022 89.3577 72.1547 89.0959C72.3104 88.8307 72.3883 88.5473 72.3883 88.2457V87.2614C72.3353 87.3144 72.2325 87.3641 72.0801 87.4105C71.9309 87.4536 71.7602 87.4917 71.568 87.5249C71.3758 87.5547 71.1885 87.5829 71.0062 87.6094C70.8239 87.6326 70.6715 87.6525 70.5488 87.669C70.2605 87.7055 69.997 87.7668 69.7583 87.853C69.523 87.9392 69.3341 88.0634 69.1916 88.2259C69.0524 88.3849 68.9828 88.5971 68.9828 88.8622C68.9828 89.2301 69.1187 89.5085 69.3904 89.6974C69.6622 89.883 70.0086 89.9759 70.4295 89.9759ZM78.7134 91.1491C78.0969 91.1491 77.5468 90.9917 77.0629 90.6768C76.5823 90.3587 76.2044 89.9062 75.9293 89.3196C75.6576 88.7296 75.5217 88.022 75.5217 87.1967C75.5217 86.3714 75.6592 85.6655 75.9343 85.0788C76.2127 84.4922 76.5939 84.0431 77.0778 83.7315C77.5617 83.42 78.1102 83.2642 78.7234 83.2642C79.1973 83.2642 79.5785 83.3438 79.8668 83.5028C80.1585 83.6586 80.3839 83.8409 80.543 84.0497C80.7054 84.2585 80.8313 84.4425 80.9208 84.6016H81.0103V80.8182H82.4968V91H81.0451V89.8118H80.9208C80.8313 89.9742 80.7021 90.1598 80.533 90.3686C80.3673 90.5774 80.1386 90.7597 79.8469 90.9155C79.5553 91.0713 79.1774 91.1491 78.7134 91.1491ZM79.0415 89.8814C79.4691 89.8814 79.8304 89.7687 80.1254 89.5433C80.4237 89.3146 80.649 88.9981 80.8015 88.5938C80.9573 88.1894 81.0352 87.7187 81.0352 87.1818C81.0352 86.6515 80.9589 86.1875 80.8065 85.7898C80.654 85.392 80.4303 85.0821 80.1353 84.8601C79.8403 84.638 79.4757 84.527 79.0415 84.527C78.5941 84.527 78.2212 84.643 77.9229 84.875C77.6246 85.107 77.3993 85.4235 77.2468 85.8246C77.0977 86.2256 77.0231 86.678 77.0231 87.1818C77.0231 87.6922 77.0993 88.1513 77.2518 88.5589C77.4042 88.9666 77.6296 89.2898 77.9279 89.5284C78.2295 89.7637 78.6007 89.8814 79.0415 89.8814Z" fill="#04121B" fill-opacity="0.48"/>
<path d="M50 59.3333C49.0834 59.3333 48.2986 59.0069 47.6459 58.3542C46.9931 57.7014 46.6667 56.9167 46.6667 56V52.6667C46.6667 52.1944 46.8264 51.7986 47.1459 51.4792C47.4653 51.1597 47.8611 51 48.3334 51C48.8056 51 49.2014 51.1597 49.5209 51.4792C49.8403 51.7986 50 52.1944 50 52.6667V56H70V52.6667C70 52.1944 70.1597 51.7986 70.4792 51.4792C70.7986 51.1597 71.1945 51 71.6667 51C72.1389 51 72.5347 51.1597 72.8542 51.4792C73.1736 51.7986 73.3334 52.1944 73.3334 52.6667V56C73.3334 56.9167 73.007 57.7014 72.3542 58.3542C71.7014 59.0069 70.9167 59.3333 70 59.3333H50ZM58.3334 39.0833L55.2084 42.2083C54.875 42.5417 54.4792 42.7014 54.0209 42.6875C53.5625 42.6736 53.1667 42.5 52.8334 42.1667C52.5278 41.8333 52.3681 41.4444 52.3542 41C52.3403 40.5556 52.5 40.1667 52.8334 39.8333L58.8334 33.8333C59 33.6667 59.1806 33.5486 59.375 33.4792C59.5695 33.4097 59.7778 33.375 60 33.375C60.2222 33.375 60.4306 33.4097 60.625 33.4792C60.8195 33.5486 61 33.6667 61.1667 33.8333L67.1667 39.8333C67.5 40.1667 67.6597 40.5556 67.6459 41C67.632 41.4444 67.4722 41.8333 67.1667 42.1667C66.8334 42.5 66.4375 42.6736 65.9792 42.6875C65.5209 42.7014 65.125 42.5417 64.7917 42.2083L61.6667 39.0833V51C61.6667 51.4722 61.507 51.8681 61.1875 52.1875C60.8681 52.5069 60.4722 52.6667 60 52.6667C59.5278 52.6667 59.132 52.5069 58.8125 52.1875C58.4931 51.8681 58.3334 51.4722 58.3334 51V39.0833Z" fill="#04121B" fill-opacity="0.48"/>
</g>
<defs>
<clipPath id="clip0_867_3380">
<rect width="120" height="120" fill="white"/>
</clipPath>
</defs>
</svg>
