<svg width="48" height="68" viewBox="0 0 48 68" fill="none" xmlns="http://www.w3.org/2000/svg">
<path d="M7.66619 54.8182H9.20739V61.5149C9.20739 62.2275 9.04001 62.8589 8.70526 63.4091C8.3705 63.956 7.89986 64.3868 7.29332 64.7017C6.68679 65.0133 5.97585 65.169 5.16051 65.169C4.34849 65.169 3.6392 65.0133 3.03267 64.7017C2.42614 64.3868 1.95549 63.956 1.62074 63.4091C1.28598 62.8589 1.11861 62.2275 1.11861 61.5149V54.8182H2.65483V61.3906C2.65483 61.8513 2.75592 62.2607 2.9581 62.6186C3.16359 62.9766 3.4536 63.2583 3.82812 63.4638C4.20265 63.666 4.64678 63.767 5.16051 63.767C5.67756 63.767 6.12334 63.666 6.49787 63.4638C6.87571 63.2583 7.16406 62.9766 7.36293 62.6186C7.5651 62.2607 7.66619 61.8513 7.66619 61.3906V54.8182ZM11.3216 67.8636V57.3636H12.7733V58.6016H12.8975C12.9837 58.4425 13.108 58.2585 13.2704 58.0497C13.4328 57.8409 13.6582 57.6586 13.9466 57.5028C14.2349 57.3438 14.6161 57.2642 15.09 57.2642C15.7065 57.2642 16.2567 57.42 16.7406 57.7315C17.2245 58.0431 17.604 58.4922 17.8791 59.0788C18.1575 59.6655 18.2967 60.3714 18.2967 61.1967C18.2967 62.022 18.1592 62.7296 17.8841 63.3196C17.609 63.9062 17.2311 64.3587 16.7505 64.6768C16.2699 64.9917 15.7214 65.1491 15.1049 65.1491C14.6409 65.1491 14.2614 65.0713 13.9664 64.9155C13.6748 64.7597 13.4461 64.5774 13.2804 64.3686C13.1146 64.1598 12.987 63.9742 12.8975 63.8118H12.8081V67.8636H11.3216ZM12.7782 61.1818C12.7782 61.7187 12.8561 62.1894 13.0119 62.5938C13.1677 62.9981 13.3931 63.3146 13.688 63.5433C13.983 63.7687 14.3443 63.8814 14.7718 63.8814C15.216 63.8814 15.5872 63.7637 15.8855 63.5284C16.1838 63.2898 16.4092 62.9666 16.5616 62.5589C16.7174 62.1513 16.7953 61.6922 16.7953 61.1818C16.7953 60.678 16.719 60.2256 16.5666 59.8246C16.4174 59.4235 16.1921 59.107 15.8904 58.875C15.5922 58.643 15.2193 58.527 14.7718 58.527C14.341 58.527 13.9764 58.638 13.6781 58.8601C13.3831 59.0821 13.1594 59.392 13.0069 59.7898C12.8545 60.1875 12.7782 60.6515 12.7782 61.1818ZM21.4487 54.8182V65H19.9622V54.8182H21.4487ZM26.6651 65.1541C25.9492 65.1541 25.3245 64.9901 24.7908 64.6619C24.2572 64.3338 23.8429 63.8748 23.5479 63.2848C23.253 62.6948 23.1055 62.0054 23.1055 61.2166C23.1055 60.4245 23.253 59.7318 23.5479 59.1385C23.8429 58.5452 24.2572 58.0845 24.7908 57.7564C25.3245 57.4283 25.9492 57.2642 26.6651 57.2642C27.381 57.2642 28.0058 57.4283 28.5394 57.7564C29.073 58.0845 29.4873 58.5452 29.7823 59.1385C30.0773 59.7318 30.2248 60.4245 30.2248 61.2166C30.2248 62.0054 30.0773 62.6948 29.7823 63.2848C29.4873 63.8748 29.073 64.3338 28.5394 64.6619C28.0058 64.9901 27.381 65.1541 26.6651 65.1541ZM26.6701 63.9062C27.1341 63.9062 27.5186 63.7836 27.8235 63.5384C28.1284 63.2931 28.3538 62.9666 28.4996 62.5589C28.6488 62.1513 28.7234 61.7022 28.7234 61.2116C28.7234 60.7244 28.6488 60.277 28.4996 59.8693C28.3538 59.4583 28.1284 59.1286 27.8235 58.88C27.5186 58.6314 27.1341 58.5071 26.6701 58.5071C26.2028 58.5071 25.815 58.6314 25.5067 58.88C25.2018 59.1286 24.9748 59.4583 24.8256 59.8693C24.6798 60.277 24.6069 60.7244 24.6069 61.2116C24.6069 61.7022 24.6798 62.1513 24.8256 62.5589C24.9748 62.9666 25.2018 63.2931 25.5067 63.5384C25.815 63.7836 26.2028 63.9062 26.6701 63.9062ZM34.1064 65.169C33.6225 65.169 33.185 65.0795 32.7939 64.9006C32.4028 64.7183 32.0929 64.4548 31.8642 64.1101C31.6388 63.7654 31.5261 63.3428 31.5261 62.8423C31.5261 62.4115 31.609 62.0568 31.7747 61.7784C31.9404 61.5 32.1641 61.2796 32.4458 61.1172C32.7276 60.9548 33.0424 60.8321 33.3904 60.7493C33.7385 60.6664 34.0931 60.6035 34.4544 60.5604C34.9118 60.5073 35.283 60.4643 35.568 60.4311C35.853 60.3946 36.0602 60.3366 36.1895 60.2571C36.3187 60.1776 36.3833 60.0483 36.3833 59.8693V59.8345C36.3833 59.4003 36.2607 59.0639 36.0154 58.8253C35.7735 58.5866 35.4122 58.4673 34.9316 58.4673C34.4312 58.4673 34.0368 58.5784 33.7484 58.8004C33.4634 59.0192 33.2662 59.2628 33.1568 59.5312L31.7598 59.2131C31.9255 58.7491 32.1674 58.3745 32.4856 58.0895C32.8071 57.8011 33.1767 57.5923 33.5943 57.4631C34.0119 57.3305 34.4511 57.2642 34.9118 57.2642C35.2167 57.2642 35.5398 57.3007 35.8812 57.3736C36.2259 57.4432 36.5474 57.5724 36.8457 57.7614C37.1473 57.9503 37.3942 58.2204 37.5865 58.5717C37.7787 58.9197 37.8748 59.3722 37.8748 59.929V65H36.4231V63.956H36.3635C36.2673 64.1482 36.1232 64.3371 35.9309 64.5227C35.7387 64.7083 35.4918 64.8625 35.1902 64.9851C34.8886 65.1077 34.5273 65.169 34.1064 65.169ZM34.4295 63.9759C34.8405 63.9759 35.1918 63.8946 35.4835 63.7322C35.7785 63.5698 36.0022 63.3577 36.1547 63.0959C36.3104 62.8307 36.3883 62.5473 36.3883 62.2457V61.2614C36.3353 61.3144 36.2325 61.3641 36.0801 61.4105C35.9309 61.4536 35.7602 61.4917 35.568 61.5249C35.3758 61.5547 35.1885 61.5829 35.0062 61.6094C34.8239 61.6326 34.6715 61.6525 34.5488 61.669C34.2605 61.7055 33.997 61.7668 33.7583 61.853C33.523 61.9392 33.3341 62.0634 33.1916 62.2259C33.0524 62.3849 32.9828 62.5971 32.9828 62.8622C32.9828 63.2301 33.1187 63.5085 33.3904 63.6974C33.6622 63.883 34.0086 63.9759 34.4295 63.9759ZM42.7134 65.1491C42.0969 65.1491 41.5468 64.9917 41.0629 64.6768C40.5823 64.3587 40.2044 63.9062 39.9293 63.3196C39.6576 62.7296 39.5217 62.022 39.5217 61.1967C39.5217 60.3714 39.6592 59.6655 39.9343 59.0788C40.2127 58.4922 40.5939 58.0431 41.0778 57.7315C41.5617 57.42 42.1102 57.2642 42.7234 57.2642C43.1973 57.2642 43.5785 57.3438 43.8668 57.5028C44.1585 57.6586 44.3839 57.8409 44.543 58.0497C44.7054 58.2585 44.8313 58.4425 44.9208 58.6016H45.0103V54.8182H46.4968V65H45.0451V63.8118H44.9208C44.8313 63.9742 44.7021 64.1598 44.533 64.3686C44.3673 64.5774 44.1386 64.7597 43.8469 64.9155C43.5553 65.0713 43.1774 65.1491 42.7134 65.1491ZM43.0415 63.8814C43.4691 63.8814 43.8304 63.7687 44.1254 63.5433C44.4237 63.3146 44.649 62.9981 44.8015 62.5938C44.9573 62.1894 45.0352 61.7187 45.0352 61.1818C45.0352 60.6515 44.9589 60.1875 44.8065 59.7898C44.654 59.392 44.4303 59.0821 44.1353 58.8601C43.8403 58.638 43.4757 58.527 43.0415 58.527C42.5941 58.527 42.2212 58.643 41.9229 58.875C41.6246 59.107 41.3993 59.4235 41.2468 59.8246C41.0977 60.2256 41.0231 60.678 41.0231 61.1818C41.0231 61.6922 41.0993 62.1513 41.2518 62.5589C41.4042 62.9666 41.6296 63.2898 41.9279 63.5284C42.2295 63.7637 42.6007 63.8814 43.0415 63.8814Z" fill="#04121B" fill-opacity="0.48"/>
<path d="M14 33.3333C13.0834 33.3333 12.2986 33.0069 11.6459 32.3542C10.9931 31.7014 10.6667 30.9167 10.6667 30V26.6667C10.6667 26.1944 10.8264 25.7986 11.1459 25.4792C11.4653 25.1597 11.8611 25 12.3334 25C12.8056 25 13.2014 25.1597 13.5209 25.4792C13.8403 25.7986 14 26.1944 14 26.6667V30H34V26.6667C34 26.1944 34.1597 25.7986 34.4792 25.4792C34.7986 25.1597 35.1945 25 35.6667 25C36.1389 25 36.5347 25.1597 36.8542 25.4792C37.1736 25.7986 37.3334 26.1944 37.3334 26.6667V30C37.3334 30.9167 37.007 31.7014 36.3542 32.3542C35.7014 33.0069 34.9167 33.3333 34 33.3333H14ZM22.3334 13.0833L19.2084 16.2083C18.875 16.5417 18.4792 16.7014 18.0209 16.6875C17.5625 16.6736 17.1667 16.5 16.8334 16.1667C16.5278 15.8333 16.3681 15.4444 16.3542 15C16.3403 14.5556 16.5 14.1667 16.8334 13.8333L22.8334 7.83333C23 7.66667 23.1806 7.54861 23.375 7.47917C23.5695 7.40972 23.7778 7.375 24 7.375C24.2222 7.375 24.4306 7.40972 24.625 7.47917C24.8195 7.54861 25 7.66667 25.1667 7.83333L31.1667 13.8333C31.5 14.1667 31.6597 14.5556 31.6459 15C31.632 15.4444 31.4722 15.8333 31.1667 16.1667C30.8334 16.5 30.4375 16.6736 29.9792 16.6875C29.5209 16.7014 29.125 16.5417 28.7917 16.2083L25.6667 13.0833V25C25.6667 25.4722 25.507 25.8681 25.1875 26.1875C24.8681 26.5069 24.4722 26.6667 24 26.6667C23.5278 26.6667 23.132 26.5069 22.8125 26.1875C22.4931 25.8681 22.3334 25.4722 22.3334 25V13.0833Z" fill="#04121B" fill-opacity="0.48"/>
</svg>
